<mxfile host="Electron" modified="2024-03-18T20:58:50.466Z" agent="Mozilla/5.0 (Macintosh; Intel Mac OS X 10_15_7) AppleWebKit/537.36 (KHTML, like Gecko) draw.io/21.5.1 Chrome/112.0.5615.204 Electron/24.6.0 Safari/537.36" etag="_m9p9XmeHVu6rjjIbJQi" version="21.5.1" type="device">
  <diagram name="Page-1" id="LpSjOElu7ajamUWmQiNa">
    <mxGraphModel dx="923" dy="674" grid="1" gridSize="10" guides="1" tooltips="1" connect="1" arrows="1" fold="1" page="1" pageScale="1" pageWidth="827" pageHeight="1169" math="0" shadow="0">
      <root>
        <mxCell id="0" />
        <mxCell id="1" parent="0" />
        <mxCell id="nTWBouo0yx0q5OkX1sUO-2" value="Admin&lt;br&gt;" style="shape=umlActor;verticalLabelPosition=bottom;verticalAlign=top;html=1;outlineConnect=0;" parent="1" vertex="1">
          <mxGeometry x="120" y="590" width="30" height="60" as="geometry" />
        </mxCell>
        <mxCell id="nTWBouo0yx0q5OkX1sUO-3" value="Acheteur" style="shape=umlActor;verticalLabelPosition=bottom;verticalAlign=top;html=1;outlineConnect=0;" parent="1" vertex="1">
          <mxGeometry x="120" y="320" width="30" height="60" as="geometry" />
        </mxCell>
        <mxCell id="nTWBouo0yx0q5OkX1sUO-5" value="" style="swimlane;startSize=0;" parent="1" vertex="1">
          <mxGeometry x="350" y="280" width="400" height="660" as="geometry" />
        </mxCell>
        <mxCell id="nTWBouo0yx0q5OkX1sUO-6" value="Acheter : commander, mettre en favoris, consulter suivi des commandes" style="ellipse;whiteSpace=wrap;html=1;" parent="nTWBouo0yx0q5OkX1sUO-5" vertex="1">
          <mxGeometry x="75" y="70" width="230" height="90" as="geometry" />
        </mxCell>
        <mxCell id="nTWBouo0yx0q5OkX1sUO-7" value="Gérer les commandes (mise à jour d&#39;état d&#39;avancement)" style="ellipse;whiteSpace=wrap;html=1;" parent="nTWBouo0yx0q5OkX1sUO-5" vertex="1">
          <mxGeometry x="100" y="460" width="180" height="60" as="geometry" />
        </mxCell>
        <mxCell id="nTWBouo0yx0q5OkX1sUO-8" value="Consulter l&#39;historique des connexions" style="ellipse;whiteSpace=wrap;html=1;" parent="nTWBouo0yx0q5OkX1sUO-5" vertex="1">
          <mxGeometry x="105" y="540" width="185" height="50" as="geometry" />
        </mxCell>
        <mxCell id="cNULTag3kYZjRJbCWzrf-3" value="Ajouter, modifier, supprimer des articles" style="ellipse;whiteSpace=wrap;html=1;" vertex="1" parent="nTWBouo0yx0q5OkX1sUO-5">
          <mxGeometry x="95" y="350" width="190" height="80" as="geometry" />
        </mxCell>
        <mxCell id="cNULTag3kYZjRJbCWzrf-5" value="Consulter l&#39;historique des commandes" style="ellipse;whiteSpace=wrap;html=1;" vertex="1" parent="nTWBouo0yx0q5OkX1sUO-5">
          <mxGeometry x="105" y="210" width="170" height="80" as="geometry" />
        </mxCell>
        <mxCell id="nTWBouo0yx0q5OkX1sUO-9" value="" style="endArrow=none;html=1;rounded=0;entryX=0;entryY=0.5;entryDx=0;entryDy=0;endFill=0;" parent="1" source="nTWBouo0yx0q5OkX1sUO-3" target="nTWBouo0yx0q5OkX1sUO-6" edge="1">
          <mxGeometry width="50" height="50" relative="1" as="geometry">
            <mxPoint x="400" y="660" as="sourcePoint" />
            <mxPoint x="450" y="610" as="targetPoint" />
          </mxGeometry>
        </mxCell>
        <mxCell id="nTWBouo0yx0q5OkX1sUO-10" value="" style="endArrow=none;html=1;rounded=0;entryX=0;entryY=0.5;entryDx=0;entryDy=0;" parent="1" source="nTWBouo0yx0q5OkX1sUO-2" target="nTWBouo0yx0q5OkX1sUO-8" edge="1">
          <mxGeometry width="50" height="50" relative="1" as="geometry">
            <mxPoint x="180" y="880" as="sourcePoint" />
            <mxPoint x="230" y="830" as="targetPoint" />
          </mxGeometry>
        </mxCell>
        <mxCell id="cNULTag3kYZjRJbCWzrf-1" value="" style="endArrow=none;html=1;rounded=0;entryX=0;entryY=0.5;entryDx=0;entryDy=0;exitX=1;exitY=0.3333333333333333;exitDx=0;exitDy=0;exitPerimeter=0;" edge="1" parent="1" source="nTWBouo0yx0q5OkX1sUO-2" target="nTWBouo0yx0q5OkX1sUO-6">
          <mxGeometry width="50" height="50" relative="1" as="geometry">
            <mxPoint x="150" y="840" as="sourcePoint" />
            <mxPoint x="200" y="790" as="targetPoint" />
          </mxGeometry>
        </mxCell>
        <mxCell id="cNULTag3kYZjRJbCWzrf-2" value="" style="endArrow=none;html=1;rounded=0;entryX=0;entryY=0.5;entryDx=0;entryDy=0;" edge="1" parent="1" source="nTWBouo0yx0q5OkX1sUO-2" target="nTWBouo0yx0q5OkX1sUO-7">
          <mxGeometry width="50" height="50" relative="1" as="geometry">
            <mxPoint x="390" y="730" as="sourcePoint" />
            <mxPoint x="440" y="680" as="targetPoint" />
          </mxGeometry>
        </mxCell>
        <mxCell id="cNULTag3kYZjRJbCWzrf-4" value="" style="endArrow=none;html=1;rounded=0;entryX=0;entryY=0.5;entryDx=0;entryDy=0;" edge="1" parent="1" source="nTWBouo0yx0q5OkX1sUO-2" target="cNULTag3kYZjRJbCWzrf-3">
          <mxGeometry width="50" height="50" relative="1" as="geometry">
            <mxPoint x="390" y="710" as="sourcePoint" />
            <mxPoint x="440" y="660" as="targetPoint" />
          </mxGeometry>
        </mxCell>
        <mxCell id="cNULTag3kYZjRJbCWzrf-6" value="" style="endArrow=none;html=1;rounded=0;exitX=0;exitY=0.5;exitDx=0;exitDy=0;entryX=1;entryY=0.3333333333333333;entryDx=0;entryDy=0;entryPerimeter=0;" edge="1" parent="1" source="cNULTag3kYZjRJbCWzrf-5" target="nTWBouo0yx0q5OkX1sUO-2">
          <mxGeometry width="50" height="50" relative="1" as="geometry">
            <mxPoint x="390" y="640" as="sourcePoint" />
            <mxPoint x="440" y="590" as="targetPoint" />
          </mxGeometry>
        </mxCell>
        <mxCell id="cNULTag3kYZjRJbCWzrf-7" value="" style="endArrow=none;html=1;rounded=0;exitX=1;exitY=1;exitDx=0;exitDy=0;exitPerimeter=0;entryX=0;entryY=0.5;entryDx=0;entryDy=0;" edge="1" parent="1" source="nTWBouo0yx0q5OkX1sUO-3" target="cNULTag3kYZjRJbCWzrf-5">
          <mxGeometry width="50" height="50" relative="1" as="geometry">
            <mxPoint x="390" y="640" as="sourcePoint" />
            <mxPoint x="440" y="590" as="targetPoint" />
          </mxGeometry>
        </mxCell>
      </root>
    </mxGraphModel>
  </diagram>
</mxfile>
